<svg width="64.000000" height="64.000000" viewBox="0 0 64 64" fill="none" xmlns="http://www.w3.org/2000/svg" xmlns:xlink="http://www.w3.org/1999/xlink">

	<defs>
		<clipPath id="clip12_35">
			<rect id="svg" width="64.000000" height="64.000000" fill="white" fill-opacity="0"/>
		</clipPath>
	</defs>
	<g clip-path="url(#clip12_35)">
		<path id="path" d="M61.33 18.66L42.66 32L61.33 45.33L61.33 18.66Z" fill="#000000" fill-opacity="0" fill-rule="nonzero"/>
		<path id="path" d="M42.66 32L61.33 45.33L61.33 18.66L42.66 32Z" stroke="#009EFF" stroke-opacity="1.000000" stroke-width="4.000000" stroke-linejoin="round"/>
		<path id="path" d="M37.33 13.33L8 13.33C5.05 13.33 2.66 15.72 2.66 18.66L2.66 45.33C2.66 48.27 5.05 50.66 8 50.66L37.33 50.66C40.27 50.66 42.66 48.27 42.66 45.33L42.66 18.66C42.66 15.72 40.27 13.33 37.33 13.33Z" fill="#000000" fill-opacity="0" fill-rule="nonzero"/>
		<path id="path" d="M8 13.33C5.05 13.33 2.66 15.72 2.66 18.66L2.66 45.33C2.66 48.27 5.05 50.66 8 50.66L37.33 50.66C40.27 50.66 42.66 48.27 42.66 45.33L42.66 18.66C42.66 15.72 40.27 13.33 37.33 13.33L8 13.33Z" stroke="#009EFF" stroke-opacity="1.000000" stroke-width="4.000000" stroke-linejoin="round"/>
	</g>
</svg>
