<svg width="64.000000" height="64.000000" viewBox="0 0 64 64" fill="none" xmlns="http://www.w3.org/2000/svg" xmlns:xlink="http://www.w3.org/1999/xlink">

	<defs>
		<clipPath id="clip12_23">
			<rect id="svg" rx="8.000000" width="64.000000" height="64.000000" fill="white" fill-opacity="0"/>
		</clipPath>
	</defs>
	<g clip-path="url(#clip12_23)">
		<path id="path" d="M10.66 10.66L10.66 53.33C10.66 54.74 11.22 56.1 12.22 57.1C13.22 58.1 14.58 58.66 15.99 58.66L47.99 58.66C49.41 58.66 50.77 58.1 51.77 57.1C52.77 56.1 53.33 54.74 53.33 53.33L53.33 21.33L37.33 5.33L15.99 5.33C14.58 5.33 13.22 5.89 12.22 6.89C11.22 7.89 10.66 9.25 10.66 10.66Z" fill="#000000" fill-opacity="0" fill-rule="evenodd"/>
		<path id="path" d="M15.99 5.33C14.58 5.33 13.22 5.89 12.22 6.89C11.22 7.89 10.66 9.25 10.66 10.66L10.66 53.33C10.66 54.74 11.22 56.1 12.22 57.1C13.22 58.1 14.58 58.66 15.99 58.66L47.99 58.66C49.41 58.66 50.77 58.1 51.77 57.1C52.77 56.1 53.33 54.74 53.33 53.33L53.33 21.33L37.33 5.33L15.99 5.33ZM37.33 5.33L37.33 21.33L53.33 21.33M42.66 34.66L21.33 34.66M42.66 45.33L21.33 45.33M26.66 24L21.33 24" stroke="#ffffffff" stroke-opacity="1.000000" stroke-width="3.500000" stroke-linejoin="round" stroke-linecap="round"/>
	</g>
</svg>
