<svg version="1.1" id="Layer_1" xmlns="http://www.w3.org/2000/svg" xmlns:xlink="http://www.w3.org/1999/xlink" x="0px" y="0px"
	 width="100%" viewBox="0 0 504 495" enable-background="new 0 0 504 495" xml:space="preserve">
<path fill="#000000" opacity="1.000000" stroke="none" 
	d="
M505.000000,189.000000 
	C505.000000,291.666656 505.000000,393.833282 505.000000,495.999939 
	C337.000061,495.999969 169.000122,495.999969 1.000145,496.000000 
	C1.000097,331.000092 1.000097,166.000214 1.000048,1.000234 
	C168.999863,1.000156 336.999725,1.000156 504.999786,1.000078 
	C505.000000,63.500000 505.000000,126.000000 505.000000,189.000000 
M478.918335,193.487762 
	C476.265533,181.443405 474.354828,169.173019 470.772369,157.411835 
	C466.279968,142.663254 458.059814,129.800598 448.381714,117.672363 
	C436.935760,103.328735 423.240753,92.006660 407.345764,83.159538 
	C387.794159,72.277122 366.001495,67.218826 345.186554,59.659019 
	C319.504883,50.331669 293.369324,42.257969 267.651917,33.024151 
	C244.285294,24.634375 220.684540,19.129757 195.608795,21.640648 
	C163.748077,24.830933 136.265503,37.396572 112.898506,59.145607 
	C103.131126,68.236679 93.728683,77.904984 88.279243,90.145668 
	C80.577209,107.446213 73.695763,125.142952 67.175949,142.931427 
	C58.240990,167.309341 49.632896,191.819977 41.526497,216.484665 
	C34.791313,236.977295 26.806814,257.088501 24.843840,279.017822 
	C23.290802,296.367584 24.736902,313.249542 29.318850,329.783875 
	C34.439980,348.263885 43.302902,364.982452 55.524334,379.960388 
	C66.795921,393.774231 80.245117,404.777771 95.842491,413.191864 
	C113.223381,422.568054 132.143646,427.986877 150.737289,434.284027 
	C177.921143,443.490479 204.935989,453.194611 232.071640,462.545135 
	C251.370193,469.195129 270.655884,475.279419 291.547058,475.542511 
	C321.514099,475.919891 348.906006,468.582581 373.592621,451.655365 
	C391.837311,439.145233 407.713684,424.061249 416.780731,403.574188 
	C425.311462,384.298889 432.741699,364.497437 439.834900,344.634186 
	C450.133057,315.796112 459.742828,286.711243 469.551544,257.699646 
	C476.488068,237.183289 481.895050,216.411316 478.918335,193.487762 
z"/>
<path fill="#C3C3C2" opacity="1.000000" stroke="none" 
	d="
M478.914948,193.950897 
	C481.895050,216.411316 476.488068,237.183289 469.551544,257.699646 
	C459.742828,286.711243 450.133057,315.796112 439.834900,344.634186 
	C432.741699,364.497437 425.311462,384.298889 416.780731,403.574188 
	C407.713684,424.061249 391.837311,439.145233 373.592621,451.655365 
	C348.906006,468.582581 321.514099,475.919891 291.547058,475.542511 
	C270.655884,475.279419 251.370193,469.195129 232.071640,462.545135 
	C204.935989,453.194611 177.921143,443.490479 150.737289,434.284027 
	C132.143646,427.986877 113.223381,422.568054 95.842491,413.191864 
	C80.245117,404.777771 66.795921,393.774231 55.524334,379.960388 
	C43.302902,364.982452 34.439980,348.263885 29.318850,329.783875 
	C24.736902,313.249542 23.290802,296.367584 24.843840,279.017822 
	C26.806814,257.088501 34.791313,236.977295 41.526497,216.484665 
	C49.632896,191.819977 58.240990,167.309341 67.175949,142.931427 
	C73.695763,125.142952 80.577209,107.446213 88.279243,90.145668 
	C93.728683,77.904984 103.131126,68.236679 112.898506,59.145607 
	C136.265503,37.396572 163.748077,24.830933 195.608795,21.640648 
	C220.684540,19.129757 244.285294,24.634375 267.651917,33.024151 
	C293.369324,42.257969 319.504883,50.331669 345.186554,59.659019 
	C366.001495,67.218826 387.794159,72.277122 407.345764,83.159538 
	C423.240753,92.006660 436.935760,103.328735 448.381714,117.672363 
	C458.059814,129.800598 466.279968,142.663254 470.772369,157.411835 
	C474.354828,169.173019 476.265533,181.443405 478.914948,193.950897 
M123.912300,79.194191 
	C94.782501,91.511063 78.550041,113.461555 78.260529,145.062515 
	C77.628471,214.052124 77.967911,283.051849 78.153389,352.046783 
	C78.190170,365.726074 81.687607,378.704926 89.527397,390.199738 
	C103.695648,410.973297 123.492752,421.768860 148.528198,421.859558 
	C216.022842,422.104034 283.518982,421.965027 351.014435,421.905365 
	C356.149139,421.900818 361.315704,421.588654 366.412445,420.967682 
	C398.443878,417.065002 425.018372,387.469574 425.076019,355.254059 
	C425.203735,283.925690 425.228821,212.596466 424.928741,141.269135 
	C424.898682,134.130707 423.355377,126.617798 420.795776,119.937157 
	C410.043213,91.872826 384.805939,75.039436 354.603088,75.030777 
	C287.440887,75.011513 220.278595,75.079086 153.116547,74.975876 
	C143.390701,74.960930 133.889496,75.786636 123.912300,79.194191 
z"/>
<path fill="#FEFEFE" opacity="1.000000" stroke="none" 
	d="
M124.296112,79.114075 
	C133.889496,75.786636 143.390701,74.960930 153.116547,74.975876 
	C220.278595,75.079086 287.440887,75.011513 354.603088,75.030777 
	C384.805939,75.039436 410.043213,91.872826 420.795776,119.937157 
	C423.355377,126.617798 424.898682,134.130707 424.928741,141.269135 
	C425.228821,212.596466 425.203735,283.925690 425.076019,355.254059 
	C425.018372,387.469574 398.443878,417.065002 366.412445,420.967682 
	C361.315704,421.588654 356.149139,421.900818 351.014435,421.905365 
	C283.518982,421.965027 216.022842,422.104034 148.528198,421.859558 
	C123.492752,421.768860 103.695648,410.973297 89.527397,390.199738 
	C81.687607,378.704926 78.190170,365.726074 78.153389,352.046783 
	C77.967911,283.051849 77.628471,214.052124 78.260529,145.062515 
	C78.550041,113.461555 94.782501,91.511063 124.296112,79.114075 
M333.733124,127.695564 
	C321.400940,122.708321 308.484833,120.299034 295.281219,120.031738 
	C275.845947,119.638283 256.390289,119.438080 236.961197,119.903038 
	C227.375809,120.132431 217.687241,121.363686 208.305145,123.361504 
	C197.791794,125.600227 190.136978,132.056061 190.406479,144.555344 
	C190.474411,147.706314 190.360519,150.932556 189.765091,154.015045 
	C185.603760,175.557831 181.408707,197.095444 177.005493,218.589859 
	C169.967209,252.947571 162.816956,287.282745 155.571671,321.597382 
	C154.205322,328.068634 155.318573,334.044891 158.867828,339.250305 
	C164.094818,346.916290 169.835724,354.247681 175.643768,361.492249 
	C177.467194,363.766724 180.073608,365.515930 182.566406,367.126801 
	C186.115906,369.420624 189.296722,368.975311 191.011826,364.705292 
	C192.432770,361.167694 193.861252,357.585785 194.765900,353.895874 
	C200.585693,330.158661 206.324265,306.400909 211.909241,282.607574 
	C212.627838,279.546143 213.661148,278.432068 216.994156,277.951935 
	C235.068787,275.348297 253.181427,272.812347 271.078003,269.237091 
	C283.154297,266.824554 294.825226,262.485077 304.196564,253.892929 
	C308.648102,249.811523 312.224030,244.727737 309.607147,238.446518 
	C307.115631,232.466217 301.086517,231.597626 295.332855,231.002151 
	C294.683563,230.934937 294.010315,231.109314 293.347412,231.161713 
	C287.047089,231.659790 280.753174,232.272690 274.444794,232.629028 
	C259.168915,233.491989 243.884766,234.207016 228.607437,235.045166 
	C224.520325,235.269379 222.261475,234.684631 223.718765,229.522171 
	C225.382889,223.626999 226.183655,217.478180 227.205811,211.413681 
	C229.630386,197.028564 231.964096,182.628113 234.503860,167.205673 
	C258.034821,164.450500 282.025421,162.055084 305.875427,158.669388 
	C317.293335,157.048553 328.700195,154.312744 339.630554,150.646393 
	C347.385193,148.045273 348.426300,140.232117 342.781311,134.110687 
	C340.481232,131.616470 337.247925,129.982880 333.733124,127.695564 
z"/>
<path fill="#020202" opacity="1.000000" stroke="none" 
	d="
M334.086182,127.826645 
	C337.247925,129.982880 340.481232,131.616470 342.781311,134.110687 
	C348.426300,140.232117 347.385193,148.045273 339.630554,150.646393 
	C328.700195,154.312744 317.293335,157.048553 305.875427,158.669388 
	C282.025421,162.055084 258.034821,164.450500 234.503860,167.205673 
	C231.964096,182.628113 229.630386,197.028564 227.205811,211.413681 
	C226.183655,217.478180 225.382889,223.626999 223.718765,229.522171 
	C222.261475,234.684631 224.520325,235.269379 228.607437,235.045166 
	C243.884766,234.207016 259.168915,233.491989 274.444794,232.629028 
	C280.753174,232.272690 287.047089,231.659790 293.347412,231.161713 
	C294.010315,231.109314 294.683563,230.934937 295.332855,231.002151 
	C301.086517,231.597626 307.115631,232.466217 309.607147,238.446518 
	C312.224030,244.727737 308.648102,249.811523 304.196564,253.892929 
	C294.825226,262.485077 283.154297,266.824554 271.078003,269.237091 
	C253.181427,272.812347 235.068787,275.348297 216.994156,277.951935 
	C213.661148,278.432068 212.627838,279.546143 211.909241,282.607574 
	C206.324265,306.400909 200.585693,330.158661 194.765900,353.895874 
	C193.861252,357.585785 192.432770,361.167694 191.011826,364.705292 
	C189.296722,368.975311 186.115906,369.420624 182.566406,367.126801 
	C180.073608,365.515930 177.467194,363.766724 175.643768,361.492249 
	C169.835724,354.247681 164.094818,346.916290 158.867828,339.250305 
	C155.318573,334.044891 154.205322,328.068634 155.571671,321.597382 
	C162.816956,287.282745 169.967209,252.947571 177.005493,218.589859 
	C181.408707,197.095444 185.603760,175.557831 189.765091,154.015045 
	C190.360519,150.932556 190.474411,147.706314 190.406479,144.555344 
	C190.136978,132.056061 197.791794,125.600227 208.305145,123.361504 
	C217.687241,121.363686 227.375809,120.132431 236.961197,119.903038 
	C256.390289,119.438080 275.845947,119.638283 295.281219,120.031738 
	C308.484833,120.299034 321.400940,122.708321 334.086182,127.826645 
z"/>
</svg>