<svg width="64.000000" height="64.000000" viewBox="0 0 64 64" fill="none" xmlns="http://www.w3.org/2000/svg" xmlns:xlink="http://www.w3.org/1999/xlink">

	<defs>
		<clipPath id="clip12_29">
			<rect id="svg" width="64.000000" height="64.000000" fill="white" fill-opacity="0"/>
		</clipPath>
	</defs>
	<g clip-path="url(#clip12_29)">
		<path id="path" d="M31.99 2.66C29.87 2.66 27.84 3.5 26.34 5C24.84 6.51 23.99 8.54 23.99 10.66L23.99 32C23.99 34.12 24.84 36.15 26.34 37.65C27.84 39.15 29.87 40 31.99 40C34.12 40 36.15 39.15 37.65 37.65C39.15 36.15 39.99 34.12 39.99 32L39.99 10.66C39.99 8.54 39.15 6.51 37.65 5C36.15 3.5 34.12 2.66 31.99 2.66ZM48.68 26.68L48.66 26.66C48.66 25.54 49.54 24.66 50.66 24.66C51.78 24.66 52.66 25.54 52.66 26.66L52.64 26.68L48.68 26.68ZM11.35 26.68L11.33 26.66C11.33 25.54 12.21 24.66 13.33 24.66C14.45 24.66 15.33 25.54 15.33 26.66L15.31 26.68L11.35 26.68ZM33.98 61.31L33.99 61.33C33.99 62.45 33.11 63.33 31.99 63.33C30.87 63.33 29.99 62.45 29.99 61.33L30.01 61.31L33.98 61.31ZM21.35 63.31L21.33 63.33C20.21 63.33 19.33 62.45 19.33 61.33C19.33 60.21 20.21 59.33 21.33 59.33L21.35 59.35L21.35 63.31ZM42.64 59.35L42.66 59.33C43.78 59.33 44.66 60.21 44.66 61.33C44.66 62.45 43.78 63.33 42.66 63.33L42.64 63.31L42.64 59.35Z" fill="#000000" fill-opacity="0" fill-rule="nonzero"/>
		<path id="path" d="M50.66 26.66L50.66 32C50.66 36.95 48.7 41.69 45.19 45.19C41.69 48.7 36.95 50.66 31.99 50.66C27.04 50.66 22.3 48.7 18.8 45.19C15.29 41.69 13.33 36.95 13.33 32L13.33 26.66M31.99 50.66L31.99 61.33M21.33 61.33L42.66 61.33M26.34 5C24.84 6.51 23.99 8.54 23.99 10.66L23.99 32C23.99 34.12 24.84 36.15 26.34 37.65C27.84 39.15 29.87 40 31.99 40C34.12 40 36.15 39.15 37.65 37.65C39.15 36.15 39.99 34.12 39.99 32L39.99 10.66C39.99 8.54 39.15 6.51 37.65 5C36.15 3.5 34.12 2.66 31.99 2.66C29.87 2.66 27.84 3.5 26.34 5Z" stroke="#009EFF" stroke-opacity="1.000000" stroke-width="4.000000" stroke-linejoin="round" stroke-linecap="round"/>
	</g>
</svg>
